<svg width="1065" height="640" viewBox="0 0 1065 640" fill="none" xmlns="http://www.w3.org/2000/svg">
<rect width="1065" height="640" fill="white"/>
<rect width="1065" height="640" fill="white"/>
<g clip-path="url(#clip0_261_2582)">
<path d="M596.926 328.823L539.416 395.408L590.747 455.333L594.073 459.614C633.523 504.319 690.557 530.003 750.445 530.003L718.125 497.663L707.193 486.723L718.125 475.784L750.92 442.968C716.7 442.968 684.379 428.7 661.091 403.493L654.912 396.358L596.926 328.823Z" fill="url(#paint0_linear_261_2582)"/>
<path d="M874.023 320.262C874.023 378.761 832.672 429.173 775.162 440.587L729.534 486.245L771.834 528.572C878.774 518.108 960.524 428.221 961 320.736L928.681 353.076L917.748 364.015L906.816 353.076L874.023 320.262Z" fill="url(#paint1_linear_261_2582)"/>
<path d="M751.872 111L784.191 143.34L795.124 154.279L784.191 165.219L751.396 197.559C809.858 197.559 860.238 238.936 871.644 296.483L917.272 342.141L959.572 299.814C949.118 192.802 859.289 111 751.872 111Z" fill="url(#paint2_linear_261_2582)"/>
<path d="M730.959 111.952C676.301 117.183 625.919 143.818 590.747 185.669L532.761 253.68L501.867 289.35L550.821 289.826H566.032V305.046V348.326L590.271 320.266L650.634 250.354L667.745 230.379C684.381 214.686 705.294 204.222 727.633 199.466L773.261 153.808L730.959 111.952Z" fill="url(#paint3_linear_261_2582)"/>
<path d="M489.036 304.568L410.136 396.357L403.958 403.492C380.668 428.7 348.348 442.967 314.128 442.967L346.923 475.783L357.856 486.723L346.923 497.662L314.604 529.529C374.491 529.529 431.05 503.847 470.975 459.14L474.301 454.859L550.824 366.398L551.3 305.047L489.036 304.568Z" fill="url(#paint4_linear_261_2582)"/>
<path d="M191.503 320.262L158.708 353.078L147.776 364.017L136.843 353.078L105 320.738C105 428.224 186.75 518.587 294.166 528.574L336.466 486.247L290.362 440.589C233.33 429.173 191.503 379.235 191.503 320.262Z" fill="url(#paint5_linear_261_2582)"/>
<path d="M313.652 111C206.238 111 115.932 192.802 105.952 300.288L148.252 342.615L193.88 296.957C205.286 239.41 255.668 198.033 314.128 198.033L281.333 164.743L270.4 154.279L281.333 143.34L313.652 111Z" fill="url(#paint6_linear_261_2582)"/>
<path d="M334.09 111.952L292.265 154.279L337.894 199.937C360.232 204.218 381.146 215.157 398.257 230.851L415.368 250.825L468.601 312.653L526.111 246.069L474.779 186.143C439.129 143.816 388.75 117.183 334.09 111.952Z" fill="url(#paint7_linear_261_2582)"/>
<path d="M604.749 408.219C606.569 406.169 608.759 403.705 610.498 401.986L610.436 401.923C608.343 403.088 606.043 404.255 603.435 405.487L594.276 409.826L592.909 408.473L597.224 399.589C598.506 396.965 599.728 394.61 600.973 392.562L600.931 392.521C599.171 394.22 596.753 396.459 594.563 398.428L588.273 404.047L586.555 402.346L601.326 389.345L603.624 391.619L599.333 400.728C598.212 403.021 597.175 405.025 596.094 406.825L596.157 406.888C597.901 405.827 599.913 404.785 602.273 403.638L611.432 399.341L613.73 401.616L600.802 416.44L599.042 414.7L604.749 408.219Z" fill="white"/>
<path d="M617.742 423.12C614.079 426.83 609.914 425.905 607.491 423.508C604.779 420.825 604.652 416.766 607.784 413.598C611.101 410.241 615.241 410.445 618.015 413.188C620.895 416.036 620.773 420.055 617.742 423.12ZM609.69 415.359C607.521 417.554 607.145 420.462 608.925 422.223C610.665 423.943 613.587 423.599 615.818 421.34C617.497 419.642 618.777 416.646 616.624 414.517C614.469 412.386 611.573 413.452 609.69 415.359Z" fill="white"/>
<path d="M622.232 423.178C623.256 422.143 624.073 421.271 624.831 420.381L626.446 421.978L624.912 423.737L624.953 423.779C626.392 423.317 628.474 423.532 630.13 425.17C631.518 426.543 632.851 429.502 629.453 432.941L623.537 438.93L621.715 437.127L627.427 431.346C629.023 429.731 629.753 427.789 628.035 426.088C626.834 424.9 625.062 424.828 623.75 425.536C623.443 425.681 623.094 425.952 622.787 426.261L616.83 432.292L615.007 430.489L622.232 423.178Z" fill="white"/>
<path d="M641.217 431.02C640.623 431.663 639.676 431.709 638.951 430.992C638.309 430.357 638.346 429.409 638.958 428.787C639.593 428.145 640.561 428.12 641.222 428.774C641.91 429.451 641.852 430.38 641.217 431.02ZM626.496 441.86L636.403 431.831L638.226 433.634L628.319 443.663L626.496 441.86Z" fill="white"/>
<path d="M646.289 435.916L643.444 438.795L646.054 441.377L644.682 442.766L642.074 440.185L636.731 445.593C635.502 446.837 635.158 447.888 636.175 448.894C636.65 449.365 637.064 449.652 637.353 449.814L636.084 451.263C635.59 451.059 634.927 450.611 634.223 449.913C633.375 449.074 632.957 448.129 633.012 447.199C633.026 446.148 633.722 445.073 634.888 443.892L640.293 438.421L638.741 436.884L640.113 435.495L641.665 437.032L644.039 434.628L646.289 435.916Z" fill="white"/>
<path d="M652.177 457.184C648.514 460.894 644.349 459.97 641.926 457.573C639.214 454.889 639.087 450.831 642.219 447.662C645.536 444.306 649.676 444.509 652.45 447.253C655.328 450.1 655.205 454.12 652.177 457.184ZM644.123 449.423C641.954 451.619 641.577 454.526 643.358 456.288C645.097 458.007 648.019 457.663 650.251 455.405C651.93 453.706 653.21 450.71 651.057 448.582C648.904 446.448 646.005 447.516 644.123 449.423Z" fill="white"/>
<path d="M656.256 457.656C657.423 456.475 658.405 455.439 659.264 454.446L660.858 456.022L658.975 458.051L659.058 458.132C660.844 457.235 662.782 457.471 664.004 458.68C664.211 458.886 664.336 459.05 664.461 459.253L662.761 460.973C662.615 460.746 662.449 460.543 662.202 460.295C660.918 459.027 659.044 459.098 657.446 460.219C657.16 460.427 656.832 460.677 656.524 460.987L651.244 466.333L649.442 464.551L656.256 457.656Z" fill="white"/>
<path d="M824.526 467.276C829.046 472.857 828.053 478.566 823.918 481.92C819.638 485.392 813.944 484.509 809.967 479.6C805.795 474.45 806.266 468.489 810.593 464.978C815.021 461.391 820.629 462.463 824.526 467.276ZM812.166 477.739C814.972 481.204 819.361 482.787 822.657 480.115C825.976 477.425 825.376 472.846 822.394 469.166C819.781 465.942 815.37 463.938 811.884 466.767C808.419 469.573 809.281 474.177 812.166 477.739Z" fill="white"/>
<path d="M827.522 465.563C826.314 464.072 825.29 462.907 824.346 461.839L826.244 460.298L827.958 462.216L828.007 462.177C827.723 460.055 828.411 458.102 830.31 456.56C833.123 454.279 837.167 454.945 840.032 458.481C843.422 462.667 842.549 466.804 839.81 469.028C838.272 470.276 836.38 470.694 834.747 470.105L834.698 470.144L839.824 476.472L837.731 478.169L827.522 465.563ZM832.127 466.971C832.381 467.283 832.663 467.532 832.924 467.759C834.497 468.914 836.59 468.891 838.105 467.664C840.341 465.85 840.159 462.97 837.994 460.298C836.105 457.963 833.259 456.963 831.023 458.775C829.58 459.944 829.071 462.071 829.949 463.991C830.09 464.315 830.273 464.685 830.506 464.974L832.127 466.971Z" fill="white"/>
<path d="M844.33 455.918C846.698 458.742 849.479 458.439 851.597 456.722C853.112 455.492 853.81 454.487 854.332 453.507L855.921 454.73C855.447 455.67 854.486 457.09 852.634 458.592C849.051 461.497 845.002 460.876 842.157 457.362C839.311 453.849 839.138 449.407 842.528 446.656C846.328 443.575 850.047 446.099 851.782 448.242C852.133 448.674 852.357 449.051 852.509 449.287L844.33 455.918ZM849.306 449.37C848.238 448.004 845.966 446.377 843.586 448.309C841.447 450.045 842.106 452.779 843.127 454.383L849.306 449.37Z" fill="white"/>
<path d="M853.112 444.528C852.001 443.157 851.022 441.997 850.073 440.973L851.925 439.471L853.849 441.699L853.946 441.62C853.209 439.628 853.683 437.608 855.103 436.457C855.344 436.262 855.531 436.149 855.764 436.041L857.381 438.037C857.125 438.165 856.889 438.317 856.6 438.551C855.11 439.759 854.967 441.749 855.965 443.571C856.15 443.899 856.376 444.273 856.667 444.636L861.696 450.845L859.603 452.541L853.112 444.528Z" fill="white"/>
<path d="M873.788 441.035L872.43 439.704L872.358 439.762C872.45 441.202 871.861 443.034 870.203 444.38C867.847 446.291 865.299 445.605 863.936 443.922C861.657 441.107 862.908 437.538 867.424 433.916L867.23 433.676C866.449 432.714 864.784 431.196 862.403 433.126C861.322 434.004 860.462 435.257 860.074 436.449L858.462 435.444C858.917 434.039 859.98 432.499 861.446 431.309C865.006 428.422 867.84 430.151 869.729 432.486L873.257 436.84C874.074 437.85 874.922 438.798 875.71 439.475L873.788 441.035ZM868.662 435.345C866.315 437.168 864.026 439.704 865.858 441.964C866.969 443.335 868.408 443.245 869.492 442.366C871.007 441.137 871.189 439.396 870.725 438.137C870.621 437.862 870.476 437.582 870.3 437.365L868.662 435.345Z" fill="white"/>
<path d="M869.244 419.882L871.954 423.227L874.984 420.77L876.289 422.381L873.259 424.838L878.345 431.117C879.514 432.562 880.586 433.047 881.764 432.093C882.316 431.644 882.667 431.24 882.872 430.953L884.256 432.463C883.983 432.962 883.431 433.609 882.614 434.272C881.627 435.072 880.581 435.403 879.609 435.234C878.5 435.095 877.447 434.238 876.336 432.865L871.192 426.513L869.388 427.976L868.083 426.365L869.886 424.902L867.625 422.113L869.244 419.882Z" fill="white"/>
<path d="M883.427 424.209C885.794 427.033 888.575 426.73 890.693 425.013C892.209 423.783 892.908 422.778 893.428 421.798L895.017 423.021C894.546 423.961 893.583 425.381 891.73 426.883C888.148 429.788 884.099 429.167 881.253 425.653C878.407 422.14 878.234 417.698 881.625 414.947C885.425 411.866 889.143 414.39 890.878 416.533C891.229 416.965 891.453 417.342 891.606 417.578L883.427 424.209ZM888.402 417.661C887.335 416.295 885.062 414.67 882.683 416.6C880.544 418.336 881.202 421.07 882.223 422.674L888.402 417.661Z" fill="white"/>
<path d="M861.21 172.007C862.31 173.202 863.529 174.684 864.698 176.415C866.819 179.554 867.599 182.281 867.218 184.696C866.856 187.137 865.491 189.34 862.756 191.189C859.995 193.056 857.159 193.729 854.535 193.197C851.886 192.684 849.268 190.65 847.046 187.359C845.995 185.801 845.189 184.445 844.568 183.254L861.21 172.007ZM847.728 184.306C848 184.925 848.518 185.746 849.095 186.601C852.248 191.272 856.572 192.044 861.141 188.956C865.149 186.284 866.158 182.309 863.037 177.689C862.275 176.558 861.596 175.772 861.081 175.28L847.728 184.306Z" fill="white"/>
<path d="M862.333 197.439C859.381 199.507 859.439 202.249 860.931 204.458C862 206.041 862.92 206.809 863.83 207.398L862.504 208.845C861.626 208.304 860.326 207.246 859.021 205.311C856.494 201.569 857.445 197.67 861.109 195.194C864.772 192.717 869.117 192.925 871.508 196.466C874.187 200.434 871.411 203.848 869.177 205.357C868.724 205.662 868.341 205.85 868.096 205.977L862.333 197.439ZM868.29 202.85C869.713 201.925 871.489 199.845 869.81 197.36C868.302 195.125 865.581 195.537 863.931 196.396L868.29 202.85Z" fill="white"/>
<path d="M872.508 207.093C874.065 206.041 875.284 205.142 876.404 204.312L877.744 206.296L875.73 207.805L875.765 207.856C877.855 207.759 879.701 208.595 881.04 210.581C883.024 213.518 882.031 217.408 878.342 219.902C873.975 222.854 870.02 221.652 868.087 218.788C867.001 217.182 866.754 215.3 867.468 213.757L867.433 213.706L860.832 218.169L859.356 215.985L872.508 207.093ZM870.745 211.466C870.42 211.686 870.152 211.94 869.909 212.178C868.65 213.616 868.493 215.659 869.563 217.24C871.14 219.574 873.963 219.641 876.749 217.757C879.183 216.112 880.4 213.421 878.825 211.087C877.807 209.58 875.778 208.903 873.834 209.596C873.506 209.707 873.129 209.853 872.829 210.056L870.745 211.466Z" fill="white"/>
<path d="M891.795 214.866L893.287 217.076L875.467 229.122L873.975 226.913L891.795 214.866Z" fill="white"/>
<path d="M891.578 239.667C887.085 242.704 883.024 240.912 881.04 237.975C878.818 234.686 879.516 230.518 883.355 227.923C887.42 225.175 891.603 226.224 893.874 229.589C896.232 233.082 895.292 237.156 891.578 239.667ZM884.942 230.107C882.281 231.905 881.308 234.794 882.766 236.955C884.191 239.066 887.242 239.306 889.977 237.457C892.035 236.066 893.95 233.271 892.188 230.659C890.423 228.048 887.249 228.547 884.942 230.107Z" fill="white"/>
<path d="M899.858 239.045L894.479 246.559C893.862 247.377 893.111 248.325 892.52 249.018L892.555 249.069C893.435 248.803 894.534 248.426 895.615 248.133L904.372 245.724L905.949 248.061L895.052 250.599C889.818 251.833 886.956 252.196 884.632 251.572C882.948 251.137 881.844 250.312 881.37 249.827L882.856 248.019C883.405 248.454 884.249 248.944 885.239 249.224C886.124 249.503 887.485 249.681 888.954 249.42C889.247 249.367 889.473 249.325 889.6 249.24C889.725 249.154 889.868 248.986 890.076 248.699L898.235 236.636L899.858 239.045Z" fill="white"/>
<path d="M582.362 243.149C583.127 241.973 584.395 240.464 585.709 239.128C587.747 237.059 589.44 236.098 591.204 235.996C592.616 235.897 594.055 236.484 595.21 237.623C597.187 239.574 597.272 242.114 596.249 244.22L596.316 244.284C597.854 243.522 599.601 243.884 601.509 245.066C604.079 246.637 605.876 247.707 606.759 247.966L604.786 249.968C604.123 249.797 602.504 248.858 600.222 247.439C597.716 245.844 596.15 245.879 594.353 247.569L592.556 249.392L599.046 255.795L597.141 257.729L582.362 243.149ZM591.094 247.945L593.043 245.967C595.08 243.898 595.24 241.469 593.528 239.78C591.595 237.873 589.37 238.441 587.331 240.464C586.411 241.398 585.841 242.153 585.624 242.551L591.094 247.945Z" fill="white"/>
<path d="M605.003 239.699C607.692 242.264 610.448 241.647 612.374 239.69C613.755 238.289 614.342 237.203 614.756 236.16L616.486 237.207C616.118 238.203 615.312 239.733 613.624 241.446C610.36 244.761 606.23 244.592 602.985 241.391C599.739 238.189 599.067 233.756 602.158 230.62C605.62 227.107 609.63 229.219 611.607 231.17C612.007 231.565 612.275 231.917 612.453 232.136L605.003 239.699ZM609.258 232.58C608.036 231.329 605.576 229.957 603.407 232.157C601.458 234.135 602.426 236.803 603.627 238.296L609.258 232.58Z" fill="white"/>
<path d="M604.151 219.033L606.08 217.076L621.86 232.642L619.932 234.6L604.151 219.033Z" fill="white"/>
<path d="M621.154 223.307C623.842 225.872 626.598 225.255 628.524 223.298C629.906 221.897 630.492 220.811 630.906 219.768L632.636 220.815C632.269 221.811 631.462 223.342 629.774 225.054C626.508 228.369 622.38 228.2 619.135 224.999C615.89 221.798 615.217 217.364 618.308 214.228C621.77 210.715 625.78 212.827 627.757 214.778C628.157 215.173 628.425 215.525 628.603 215.744L621.154 223.307ZM625.406 216.188C624.184 214.938 621.724 213.565 619.555 215.765C617.606 217.744 618.574 220.411 619.775 221.904L625.406 216.188Z" fill="white"/>
<path d="M641.951 212.25L640.443 211.069L640.378 211.136C640.633 212.569 640.247 214.471 638.736 216.006C636.588 218.185 633.959 217.785 632.405 216.248C629.804 213.683 630.661 209.966 634.779 205.829L634.558 205.609C633.668 204.733 631.827 203.397 629.659 205.6C628.672 206.601 627.954 207.953 627.697 209.192L625.97 208.364C626.268 206.904 627.162 205.242 628.499 203.885C631.742 200.594 634.775 202.008 636.932 204.135L640.956 208.103C641.889 209.023 642.845 209.878 643.709 210.468L641.951 212.25ZM636.177 207.123C634.029 209.215 632.019 212.012 634.107 214.073C635.373 215.324 636.807 215.069 637.794 214.069C639.175 212.668 639.161 210.9 638.556 209.691C638.422 209.428 638.244 209.164 638.043 208.965L636.177 207.123Z" fill="white"/>
<path d="M644.377 205.785C645.324 205.579 646.733 204.95 647.696 203.973C649.098 202.549 649.045 201.181 648.156 200.302C647.223 199.382 646.162 199.433 644.206 200.353C641.61 201.608 639.646 201.467 638.357 200.196C636.623 198.486 636.581 195.682 638.861 193.368C639.935 192.277 641.187 191.63 642.136 191.381L643.076 193.274C642.393 193.433 641.27 193.861 640.284 194.861C639.145 196.017 639.175 197.321 639.977 198.111C640.866 198.987 641.901 198.738 643.816 197.864C646.368 196.697 648.244 196.662 649.844 198.241C651.734 200.104 651.621 202.889 649.1 205.445C647.939 206.624 646.576 207.428 645.386 207.747L644.377 205.785Z" fill="white"/>
<path d="M651.369 192.638C654.057 195.204 656.813 194.587 658.739 192.629C660.121 191.228 660.707 190.142 661.121 189.099L662.848 190.146C662.481 191.143 661.675 192.673 659.987 194.385C656.723 197.7 652.593 197.529 649.348 194.328C646.102 191.126 645.43 186.693 648.521 183.557C651.983 180.044 655.993 182.156 657.97 184.107C658.37 184.502 658.638 184.854 658.815 185.073L651.369 192.638ZM655.621 185.519C654.399 184.269 651.939 182.896 649.77 185.096C647.821 187.075 648.789 189.742 649.99 191.235L655.621 185.519Z" fill="white"/>
<path d="M413.151 434.959L408.081 439.055L406.602 437.224L418.941 427.253L420.42 429.083L415.326 433.2L427.308 448.046L425.132 449.804L413.151 434.959Z" fill="white"/>
<path d="M429.125 437.339C431.551 440.245 434.408 439.937 436.584 438.181C438.141 436.921 438.861 435.89 439.397 434.885L441.026 436.144C440.538 437.111 439.547 438.564 437.644 440.104C433.96 443.081 429.802 442.434 426.887 438.821C423.972 435.208 423.804 430.644 427.289 427.828C431.195 424.671 435.011 427.271 436.787 429.474C437.148 429.92 437.376 430.306 437.531 430.549L429.125 437.339ZM434.246 430.625C433.154 429.22 430.823 427.546 428.375 429.525C426.173 431.302 426.848 434.11 427.892 435.761L434.246 430.625Z" fill="white"/>
<path d="M442.721 431.912C443.703 431.813 445.2 431.339 446.288 430.461C447.87 429.183 447.974 427.791 447.175 426.802C446.336 425.762 445.26 425.693 443.172 426.398C440.402 427.368 438.43 427.001 437.27 425.566C435.713 423.636 435.993 420.793 438.563 418.715C439.776 417.735 441.118 417.224 442.104 417.078L442.839 419.101C442.13 419.184 440.945 419.487 439.832 420.386C438.545 421.424 438.427 422.746 439.146 423.638C439.945 424.627 441.021 424.493 443.058 423.83C445.775 422.942 447.676 423.122 449.115 424.904C450.813 427.008 450.378 429.811 447.535 432.109C446.225 433.167 444.754 433.826 443.513 434.009L442.721 431.912Z" fill="white"/>
<path d="M444.788 408.455L447.565 411.894L450.681 409.377L452.018 411.034L448.902 413.551L454.113 420.009C455.312 421.493 456.411 421.995 457.622 421.017C458.19 420.557 458.55 420.143 458.763 419.85L460.179 421.403C459.899 421.916 459.331 422.579 458.49 423.259C457.476 424.077 456.4 424.417 455.402 424.241C454.266 424.098 453.185 423.213 452.046 421.803L446.775 415.271L444.92 416.769L443.583 415.111L445.437 413.614L443.121 410.743L444.788 408.455Z" fill="white"/>
<path d="M181.178 409.657C182.227 410.327 183.731 411.538 185.126 412.909C187.115 414.864 188.057 416.466 188.251 418.185C188.466 419.565 188.048 420.952 186.858 422.163C185.398 423.649 183.135 423.987 180.929 422.986L180.885 423.032C181.987 424.837 182.511 427.733 180.266 430.019C178.963 431.346 177.45 431.834 175.933 431.825C173.893 431.751 171.708 430.5 169.195 428.029C167.825 426.682 166.862 425.556 166.291 424.812L181.178 409.657ZM176.968 417.92L178.771 419.695C180.873 421.761 183.186 421.879 184.645 420.393C186.419 418.588 185.745 416.531 183.735 414.552C182.821 413.653 182.229 413.205 181.841 412.96L176.968 417.92ZM169.715 425.304C170.036 425.755 170.585 426.34 171.292 427.035C173.348 429.058 175.986 430.17 178.187 427.928C180.252 425.824 179.303 423.18 177.132 421.045L175.487 419.427L169.715 425.304Z" fill="white"/>
<path d="M190.776 443.055C189.653 444.199 188.688 445.226 187.902 446.162L186.121 444.41L187.782 442.491L187.736 442.447C186.334 442.822 184.024 442.843 182.061 440.908C180.324 439.2 179.19 436.195 183.005 432.308L189.362 425.838L191.372 427.817L185.352 433.944C183.287 436.047 182.534 438.093 184.361 439.891C185.71 441.218 187.567 441.202 188.808 440.67C189.214 440.485 189.642 440.187 190.002 439.822L196.673 433.033L198.682 435.012L190.776 443.055Z" fill="white"/>
<path d="M207.31 437.381C206.658 438.088 205.616 438.144 204.817 437.358C204.108 436.662 204.145 435.618 204.82 434.933C205.515 434.224 206.58 434.194 207.312 434.913C208.065 435.652 208.005 436.674 207.31 437.381ZM191.145 449.354L202.015 438.289L204.025 440.268L193.155 451.332L191.145 449.354Z" fill="white"/>
<path d="M212.437 438.379L214.447 440.358L198.502 456.588L196.493 454.609L212.437 438.379Z" fill="white"/>
<path d="M227.377 453.077L214.239 466.45C213.273 467.433 212.195 468.577 211.523 469.397L209.719 467.622L211.513 465.611L211.467 465.568C209.638 466.196 207.37 465.806 205.563 464.03C202.891 461.4 203.057 457.115 206.358 453.754C209.952 450.052 214.458 450.035 217.154 452.686C218.845 454.348 219.201 456.274 218.829 457.658L218.875 457.702L225.365 451.096L227.377 453.077ZM215.867 460.769C216.115 460.517 216.429 460.152 216.607 459.833C217.567 458.261 217.503 456.13 215.997 454.647C213.918 452.601 210.887 453.216 208.485 455.663C206.284 457.903 205.561 460.834 207.732 462.97C209.081 464.296 211.19 464.618 213.038 463.469C213.375 463.261 213.668 463.011 213.983 462.69L215.867 460.769Z" fill="white"/>
<path d="M174.415 239.715C174.223 240.806 173.44 242.694 171.93 244.733C168.426 249.459 162.806 250.802 157.313 246.725C152.068 242.833 151.148 236.636 155.003 231.438C156.553 229.349 157.976 228.362 158.699 228.01L160.078 229.843C159.071 230.368 157.907 231.318 156.874 232.709C153.962 236.641 154.537 241.116 158.937 244.382C163.039 247.426 167.426 247.019 170.449 242.939C171.426 241.622 172.149 240.076 172.371 238.89L174.415 239.715Z" fill="white"/>
<path d="M178.675 222.322C183.126 225.625 182.777 230.148 180.619 233.058C178.203 236.317 173.956 237.059 170.151 234.235C166.123 231.246 165.716 226.857 168.188 223.522C170.75 220.066 174.995 219.59 178.675 222.322ZM171.717 231.967C174.353 233.923 177.467 233.881 179.051 231.743C180.601 229.654 179.797 226.628 177.088 224.617C175.048 223.104 171.708 222.204 169.791 224.793C167.874 227.379 169.431 230.269 171.717 231.967Z" fill="white"/>
<path d="M176.891 200.601L191.434 211.394C192.503 212.187 193.739 213.068 194.615 213.602L193.157 215.566L190.995 214.115L190.958 214.166C191.804 215.834 191.734 218.058 190.277 220.023C188.119 222.933 183.999 223.346 180.344 220.633C176.323 217.688 175.706 213.373 177.882 210.438C179.247 208.598 181.04 207.999 182.414 208.17L182.451 208.119L175.265 202.787L176.891 200.601ZM185.786 210.595C185.514 210.391 185.121 210.139 184.793 210.012C183.16 209.303 181.132 209.647 179.915 211.29C178.238 213.553 179.231 216.373 181.89 218.347C184.327 220.154 187.226 220.455 188.976 218.093C190.064 216.625 190.09 214.561 188.745 212.945C188.503 212.649 188.223 212.402 187.875 212.146L185.786 210.595Z" fill="white"/>
<path d="M192.52 204.68C195.516 206.825 198.135 205.84 199.756 203.649C200.918 202.082 201.346 200.933 201.607 199.854L203.45 200.642C203.226 201.671 202.646 203.286 201.228 205.2C198.481 208.908 194.402 209.312 190.773 206.619C187.145 203.927 185.87 199.665 188.471 196.156C191.383 192.224 195.615 193.745 197.825 195.386C198.273 195.719 198.583 196.027 198.789 196.218L192.52 204.68ZM195.712 197.099C194.338 196.04 191.732 195.033 189.907 197.497C188.267 199.711 189.586 202.193 190.972 203.494L195.712 197.099Z" fill="white"/>
<path d="M404.699 164.172C406.055 164.999 407.755 166.171 409.73 167.879C412.157 169.978 413.449 172.079 413.7 174.071C413.964 175.879 413.391 177.799 411.929 179.494C410.441 181.218 408.764 182.133 406.951 182.293C404.459 182.554 401.731 181.43 399.331 179.357C398.596 178.724 397.943 178.109 397.502 177.48L390.921 185.108L388.465 182.986L404.699 164.172ZM399.234 175.474C399.647 176.08 400.278 176.72 401.096 177.427C404.059 179.988 407.11 180.108 409.376 177.483C411.545 174.968 410.815 172.218 408.106 169.876C407.034 168.949 406.14 168.328 405.621 168.073L399.234 175.474Z" fill="white"/>
<path d="M420.565 175.712L423.048 177.86L405.741 197.915L403.258 195.768L420.565 175.712Z" fill="white"/>
<path d="M417.486 208.062L418.775 206.169L418.69 206.095C417.001 206.508 414.705 206.201 412.756 204.518C409.988 202.128 410.259 198.96 411.966 196.981C414.818 193.676 419.313 194.404 424.568 198.994L424.813 198.712C425.788 197.582 427.234 195.28 424.439 192.865C423.168 191.767 421.501 191.016 420.004 190.808L420.854 188.681C422.616 188.922 424.67 189.858 426.391 191.344C430.569 194.954 429.123 198.685 426.758 201.426L422.346 206.538C421.323 207.724 420.378 208.933 419.745 210.01L417.486 208.062ZM423.138 200.767C420.477 198.368 416.985 196.191 414.694 198.846C413.303 200.457 413.719 202.147 414.989 203.245C416.768 204.782 418.872 204.627 420.267 203.811C420.572 203.631 420.872 203.397 421.092 203.143L423.138 200.767Z" fill="white"/>
<path d="M432.131 203.309C433.35 201.897 434.32 200.714 435.212 199.512L437.413 201.414L435.605 203.797L435.66 203.846C437.459 203.131 440.136 203.226 442.395 205.177C444.287 206.811 446.248 210.479 442.201 215.167L435.156 223.33L432.673 221.183L439.474 213.301C441.375 211.099 442.141 208.554 439.797 206.529C438.159 205.115 435.889 205.175 434.272 206.194C433.891 206.407 433.468 206.781 433.103 207.206L426.01 215.428L423.526 213.28L432.131 203.309Z" fill="white"/>
<path d="M255.12 337.92H260.4C271.707 337.92 277.36 331.813 277.36 319.6V318.96C277.36 312.933 275.973 308.427 273.2 305.44C270.48 302.4 266.16 300.88 260.24 300.88H255.12V337.92ZM242.16 348V290.8H260.88C270.693 290.8 278.133 293.28 283.2 298.24C288.32 303.2 290.88 310.053 290.88 318.8V319.44C290.88 328.24 288.32 335.2 283.2 340.32C278.08 345.44 270.613 348 260.8 348H242.16ZM300.207 348V290.8H337.487V300.88H313.087V314.24H332.607V323.68H313.087V337.92H338.767V348H300.207ZM362.265 348L343.145 290.8H356.825L370.425 334.72L384.025 290.8H396.185L377.145 348H362.265Z" fill="url(#paint8_linear_261_2582)"/>
<path d="M690.8 338.56C695.653 338.56 699.493 336.853 702.32 333.44C705.147 329.973 706.56 325.36 706.56 319.6V318.96C706.56 313.307 705.147 308.773 702.32 305.36C699.493 301.947 695.6 300.24 690.64 300.24C685.68 300.24 681.787 301.947 678.96 305.36C676.133 308.72 674.72 313.28 674.72 319.04V319.68C674.72 325.44 676.213 330.027 679.2 333.44C682.187 336.853 686.053 338.56 690.8 338.56ZM711.92 340.64C706.533 346.133 699.413 348.88 690.56 348.88C681.707 348.88 674.587 346.16 669.2 340.72C663.867 335.227 661.2 328.24 661.2 319.76V319.12C661.2 310.64 663.973 303.68 669.52 298.24C675.067 292.747 682.107 290 690.64 290C699.28 290 706.347 292.667 711.84 298C717.333 303.333 720.08 310.267 720.08 318.8V319.44C720.08 328.027 717.36 335.093 711.92 340.64ZM729.473 348V290.8H749.233C756.273 290.8 761.659 292.347 765.393 295.44C769.179 298.533 771.073 303.067 771.073 309.04V309.36C771.073 315.227 769.179 319.68 765.393 322.72C761.606 325.707 756.353 327.2 749.633 327.2H742.353V348H729.473ZM742.353 318.16H748.913C755.366 318.16 758.593 315.253 758.593 309.44V309.12C758.593 303.467 755.366 300.64 748.913 300.64H742.353V318.16ZM799.16 348.88C791.587 348.88 785.853 347.227 781.96 343.92C778.067 340.613 775.933 336 775.56 330.08H787.96C788.28 333.013 789.24 335.307 790.84 336.96C792.493 338.613 795.267 339.44 799.16 339.44C801.987 339.44 804.253 338.747 805.96 337.36C807.72 335.92 808.6 334.08 808.6 331.84C808.6 329.547 807.853 327.893 806.36 326.88C804.867 325.867 802.013 325.04 797.8 324.4C790.333 323.44 785.027 321.68 781.88 319.12C778.733 316.507 777.16 312.48 777.16 307.04C777.16 302.08 779.053 298 782.84 294.8C786.68 291.6 791.72 290 797.96 290C804.413 290 809.453 291.44 813.08 294.32C816.76 297.2 818.867 301.467 819.4 307.12H807.48C806.68 302.053 803.507 299.52 797.96 299.52C795.187 299.52 793.053 300.107 791.56 301.28C790.12 302.453 789.4 304.027 789.4 306C789.4 308.133 790.093 309.733 791.48 310.8C792.92 311.813 795.773 312.64 800.04 313.28C807.4 314.24 812.733 315.973 816.04 318.48C819.347 320.933 821 324.987 821 330.64C821 335.867 819 340.213 815 343.68C811.053 347.147 805.773 348.88 799.16 348.88Z" fill="url(#paint9_linear_261_2582)"/>
</g>
<defs>
<linearGradient id="paint0_linear_261_2582" x1="539.423" y1="429.412" x2="750.922" y2="429.412" gradientUnits="userSpaceOnUse">
<stop stop-color="#61A9D1"/>
<stop offset="1" stop-color="#3E83AA"/>
</linearGradient>
<linearGradient id="paint1_linear_261_2582" x1="729.541" y1="424.416" x2="961.001" y2="424.416" gradientUnits="userSpaceOnUse">
<stop stop-color="#61A9D1"/>
<stop offset="1" stop-color="#3E83AA"/>
</linearGradient>
<linearGradient id="paint2_linear_261_2582" x1="751.403" y1="226.569" x2="959.574" y2="226.569" gradientUnits="userSpaceOnUse">
<stop stop-color="#61A9D1"/>
<stop offset="1" stop-color="#3E83AA"/>
</linearGradient>
<linearGradient id="paint3_linear_261_2582" x1="501.876" y1="230.138" x2="773.263" y2="230.138" gradientUnits="userSpaceOnUse">
<stop stop-color="#61A9D1"/>
<stop offset="1" stop-color="#3E83AA"/>
</linearGradient>
<linearGradient id="paint4_linear_261_2582" x1="314.13" y1="417.047" x2="551.302" y2="417.047" gradientUnits="userSpaceOnUse">
<stop stop-color="#59B3B9"/>
<stop offset="1" stop-color="#59E1EA"/>
</linearGradient>
<linearGradient id="paint5_linear_261_2582" x1="105.002" y1="424.416" x2="336.468" y2="424.416" gradientUnits="userSpaceOnUse">
<stop stop-color="#59B3B9"/>
<stop offset="1" stop-color="#59E1EA"/>
</linearGradient>
<linearGradient id="paint6_linear_261_2582" x1="105.954" y1="226.805" x2="314.13" y2="226.805" gradientUnits="userSpaceOnUse">
<stop stop-color="#59B3B9"/>
<stop offset="1" stop-color="#59E1EA"/>
</linearGradient>
<linearGradient id="paint7_linear_261_2582" x1="292.267" y1="212.301" x2="526.113" y2="212.301" gradientUnits="userSpaceOnUse">
<stop stop-color="#59B3B9"/>
<stop offset="1" stop-color="#59E1EA"/>
</linearGradient>
<linearGradient id="paint8_linear_261_2582" x1="236.001" y1="322.499" x2="398.001" y2="322.499" gradientUnits="userSpaceOnUse">
<stop stop-color="#59E1EA"/>
<stop offset="1" stop-color="#59B3B9"/>
</linearGradient>
<linearGradient id="paint9_linear_261_2582" x1="658.006" y1="322.5" x2="825.001" y2="322.5" gradientUnits="userSpaceOnUse">
<stop stop-color="#61A9D1"/>
<stop offset="1" stop-color="#3E83AA"/>
</linearGradient>
<clipPath id="clip0_261_2582">
<rect width="856" height="419" fill="white" transform="translate(105 111)"/>
</clipPath>
</defs>
</svg>
